<?xml version="1.0" encoding="UTF-8"?><svg id="uuid-78638fc6-e48c-4bec-ad49-481937693bee" xmlns="http://www.w3.org/2000/svg" xmlns:xlink="http://www.w3.org/1999/xlink" viewBox="0 0 1440 1440"><defs><style>.uuid-e6646800-eb57-4c55-b82e-2a13d99bcf1e{fill:#442d22;}.uuid-0311d230-007a-4768-8b98-9e899a72cc8e{fill:#fff;}.uuid-dcc6c916-968b-4ec3-b74b-e5da7952772e{fill:#ffce05;}.uuid-7db1d6c7-dd74-4b03-8ec6-0c1e72016843{clip-path:url(#uuid-a2a20798-52db-44e0-bf54-da5a6d8a34da);}.uuid-5a3fdefa-452c-489b-acc9-e5829344e31a{fill:none;}.uuid-f76562ce-d9e2-456e-b250-a68b517b8f8d{fill:#0c569d;}</style><clipPath id="uuid-a2a20798-52db-44e0-bf54-da5a6d8a34da"><rect class="uuid-5a3fdefa-452c-489b-acc9-e5829344e31a" x="158.4" y="138.24" width="1123.2" height="1163.52"/></clipPath></defs><circle class="uuid-f76562ce-d9e2-456e-b250-a68b517b8f8d" cx="720" cy="720" r="664.96"/><g class="uuid-7db1d6c7-dd74-4b03-8ec6-0c1e72016843"><path class="uuid-e6646800-eb57-4c55-b82e-2a13d99bcf1e" d="m581.14,585.87c-9.29.05-18.57.09-27.86.15,6.84-8.51,14.52-16.25,23.12-22.3,10.94-11.2,24.8-23.29,37.64-29.78,14.88-7.53,31.96-9.34,46.09-18.66,14.5-9.55,30.35-6.75,46.41-4.05,4.74.8,9.47,1.48,14.2,2.04,4.74-.56,9.47-1.24,14.22-2.04,16.04-2.7,31.91-5.5,46.41,4.05,14.12,9.32,31.19,11.13,46.09,18.66,12.83,6.49,26.7,18.58,37.63,29.78,8.58,6.03,16.25,13.76,23.08,22.24l-26.79-.15-140.11-.24c-46.7.11-93.4.11-140.1.29m140.1,272.67l-140.1-.24-28.31-.13c3.04,4.42,7.13,8.15,11.17,11.81,19,17.21,31.23,31.42,57.36,36.57,11.45,2.26,17.43,8.26,26.54,14.22,20.73,13.56,46.41,17.21,72.84,14.93,26.43,2.28,52.12-1.37,72.84-14.93,9.13-5.97,15.1-11.96,26.54-14.22,26.14-5.15,38.36-19.37,57.36-36.57,4.06-3.66,8.15-7.42,11.19-11.85-9.1.04-18.2.09-27.31.13-46.7.17-93.4.17-140.11.28Z"/><path class="uuid-dcc6c916-968b-4ec3-b74b-e5da7952772e" d="m382.43,284.2c-7.13-26.69-8.73-46.3-3.81-51.94,9.35-10.87,67.23,10,127.28,54.11,30,21.96,60.45,49.67,85.43,81.12,12.47,15.73,23.61,32.35,32.62,49.64,8.75,16.89,18.01,37.24,22.12,59.19,1.67,8.71.76,17.34-2.28,24.67-1.49,3.57-6.58,3.4-7.73-.29-10.03-32.38-26.15-62.56-47.3-88.34,19.92,29.25,33.42,62.36,39.93,96.47,1.11,5.81-1.51,11.69-6.53,14.78l-.16.09c-4.13,2.53-9.29,2.68-13.59.44-46.41-24.15-86.78-61.31-114.36-107.16,21.36,42.82,53.88,80.45,93.65,108.64,4.44,3.14,2.6,10.14-2.81,10.76-4.97.6-9.05.48-11.92-.39-14.6-4.52-28.14-9.76-43.53-20.03-3.82-2.56-7.79-5.46-11.63-8.44-3.84-3-7.57-6.13-11.25-9.35-7.34-6.47-14.36-13.4-21.08-20.67-26.83-29.14-48.82-64.05-66.11-98.41-17.28-34.34-29.82-68.17-36.95-94.88m-38.09,114.06c13.63,8.9,49.24,16.93,62.59,23.67,13.35,6.73-23.42-29.15-41.38-27.32,0,0,15.59-4.42,44.25,18.94,1.39,1.13,3.52.23,3.6-1.56.15-3.25-.76-8.58-5.5-16.18-6.73-10.79-21.1-22.42-21.1-22.42,0,0,13.52,4.98,20.13,11.48,3.5,3.42,1.03-4.63.65-5.81-1.69-5.37-3.22-11.21-6.54-15.68-1.15-1.56-2.53-2.96-4.2-4.09-4.54-3.13-9.61-5.51-14.67-7.66-11.87-4.99-24.44-8.68-37.09-11.07-5.22-.99-21.01-5.17-25.16.35-5.98,7.96,10.81,48.45,24.42,57.34Zm305.57,4.34c.56,12.65,2.24,25.28,5.28,37.59,2.93,11.83,6.77,25.31,13.44,35.61,2,3.08,4.52,5.9,7.57,7.96.73.51,2.03,1.17,3.36,1.61,2.54.84,5.22.8,4.37-3.06-5.4-24.52-8.27-49.52-8.45-74.46-.29-38.14,5.64-76.13,17.33-112.05-9.53,36.56-13.07,74.48-10.53,111.8,1.03,15.29,3.09,30.51,6.13,45.52,1.52,7.49,3.28,14.93,5.28,22.31,1.43,5.26,2.28,15.66,8.07,18.05,3.45,1.41,9.53-.39,12.16-2.97,6.76-6.62,12.07-17.81,16.72-26.02,5.01-8.84,9.41-18.03,12.75-27.66,3.32-9.63,5.54-19.71,6.01-30.03.68,10.31-.43,20.78-2.73,30.95-2.32,10.2-5.8,20.14-9.93,29.77-2.94,6.83-6.21,13.51-9.69,20.06-2.86,5.38,5.66,4.13,7.98,3.66,23.44-4.74,35.25-26.29,45.09-45.9,10.83-21.56,18.12-44.8,22.93-68.41,7.46-36.69,9.15-74.57,6.74-111.89-4.45-68.86-22.93-123.89-37.31-124.96-14.9-1.11-58.24,48.77-89.22,116.11-20.9,45.47-35.6,95.95-33.38,146.41Zm174.73-108.44c5.16-11.37,19.73-24.17,19.73-24.17,0,0-12.42,21.58-15.64,38.38-2.28,11.85-.81,18.98.93,22.99.97,2.21,4.09,2.32,5.29.23,24.66-43.25,46.39-45.24,46.39-45.24-23.46,6.39-52.26,69.3-38.75,54.37,13.51-14.92,54.36-42.29,67.15-60.05,12.8-17.78,14.27-76.77,2.89-83.88-7.89-4.93-25.7,7.99-31.78,11.76-14.75,9.12-28.74,19.84-41.22,31.89-5.33,5.14-10.53,10.6-14.74,16.73-1.53,2.24-2.58,4.65-3.28,7.17-2,7.22-1.11,15.3-.61,22.87.11,1.65.91,12.99,3.62,6.98Zm284.13,273.57c-2.04,1.4-2.05,4.42-.07,5.86.59.43,1.37.67,2.25.76,2.32.28,5.28-.32,7.07-.37,7.69-.27,15.38-.83,23.02-1.78,7.59-.95,15.14-2.29,22.58-4.08,5.76-1.39,15.23-2.64,19.92-5.98-9.95,7.11-49.42,16.7-51.55,20.98-2.13,4.26,64.35,3.2,77.86-4.62,13.51-7.83,42.68-34.64,32.72-41.74-9.95-7.11-74.68-2.86-82.5,0-6.69,2.44-27.63,14.65-51.32,30.98Zm-80.22-156.3c-5.81,7.72,3.54,7.83,19.72,0,16.16-7.83,47.11-28.36,47.11-28.36-4.26,10.73-34.84,29.07-36.27,32.63-1.41,3.56,39.12,3.56,59.02-8.52,19.92-12.09,36.97-62.56,26.31-73.93-10.67-11.37-54.75,19.46-67.55,23.51-12.8,4.06-26.49,25.56-48.35,54.67Zm-236.91,32.84c-4.37,13.11-7.02,26.72-7.45,40.7-.12,4.25,1.21,9.9,5.46,10.02,3.5.11,5.53-3.8,6.78-7.06,19.55-51.29,53.56-96.99,97.08-130.47-18.39,14.14-33.91,35.37-46.61,54.53-13.38,20.19-24.28,42.01-32.36,64.82-2.82,7.99-5.3,16.1-7.42,24.31-1.17,4.58-2.66,6.9,1.33,10.11,3.09,2.49,6.57,3.88,10.59,3.61,4.94-.32,9.55-2.5,13.96-4.74,21.52-10.87,41.85-24.07,60.56-39.26-14.23,14.36-28.46,28.7-42.69,43.06-7.01,7.07,4.32,8.32,9.43,7.1,10.3-2.45,20.68-6.83,30.23-11.37,22.38-10.6,42.53-25.43,60.92-41.9,9.65-8.64,18.84-17.78,27.73-27.18,45.39-48.09,84.13-103.35,107.42-165.23,2.93-7.78,5.38-17.26.27-23.8-5.37-6.86-15.75-6.37-24.36-4.93-79.81,13.35-155.18,52.12-212.43,109.28-25.13,25.09-47.34,55.17-58.44,88.42Zm-195.14-103.47c1.49,1.56,4.14,2.89,5.14.87.32-.67.31-1.47.28-2.22-.29-8.38-.59-16.77-.88-25.16v.12c2.54,13.13,6.14,26.68,14.36,36.08,2.62,3,6.25,5.62,9.77,4.44,4.14-1.4,5.82-7.18,6.46-12.19,2.8-22.27-2.44-44.72-7.63-66.39.91,3.77,3.44,7.66,4.81,11.28,1.63,4.3,3.06,8.7,4.32,13.16,1.73,6.23,1.08,13.19,2.23,19.58.41,2.33,2.27,4.78,4.18,3.96,1.29-.56,1.85-2.33,2.24-3.89,6.21-25.84,14.39-44.55,3.41-68.18-7.27-15.66-28.09-37.96-39.93-49.04-5.9-5.51-12.18-10.47-18.69-14.93-5.42-3.73-12.35-8.19-17.36-.95-2.68,3.86-3.38,9.06-3.9,14-2.66,24.81-11.82,58.86-7.39,83.34,4.42,24.47,22.74,39.41,38.6,56.14Zm466.4,668.87c-7.81-13.12-15.19-25.84-21.6-37.67-1.55-3.01-3.25-5.81-4.81-8.71-1.6-2.92-3.29-5.89-5.09-8.92-3.6-6.1-7.59-12.47-12.2-19.1-4.58-6.58-9.78-13.47-15.66-20.24-5.82-6.73-12.07-13.04-18.76-18.82-9.62-8.32-20.28-14.69-30.92-21.46-6.36-4.04-13.78-6.38-21.3-6.82-5.22-.31-17.89-.13-20.81,5.53-2.33,4.53,7.29,9.07,10.13,11.25,5.09,3.94,10.11,7.99,15.04,12.15,9.81,8.28,19.25,16.98,28.29,26.1,17.93,18.06,34.28,37.69,48.71,58.66.85,1.24,1.71,2.5,2.56,3.76-6.74-10.03-17.71-18.91-26.54-27.08-9.35-8.64-19.12-16.83-29.22-24.6-19.53-15-40.78-30.65-62.93-41.57-2.61-1.29-12.16-6.34-11.22.52,4.45,32.11,16.85,63.78,36.61,91.05-11.45-11.61-21.45-24.61-29.86-38.58-4.18-6.97-7.97-14.17-11.34-21.56-1.61-3.53-2.66-8.07-4.76-11.31-6.72-10.4-9.74,14.1-9.58,17.62.72,16.94,4,33.76,9.21,50.18,2.62,8.24,5.65,16.26,9.25,24.39,3.62,8.16,7.95,16.58,13.15,25.15,5.18,8.56,11.23,17.29,18.25,25.88,3.52,4.28,7.23,8.63,11.22,12.67,3.94,4.09,7.94,8.11,12.1,11.73,16.52,14.88,34.23,26.38,51.27,35.01,17.08,8.64,33.52,14.5,48.46,18.5,14.95,3.97,28.41,6.09,39.9,6.99,22.96,1.68,38.2-1.37,41.33-7.83,3.26-6.75-2.4-24.43-14.14-46.91-11.58-22.5-29.11-49.77-44.74-75.96Zm43.45-59.76c-2.84-3.92-5.9-7.78-9.49-11.05-1.31-1.2-2.78-2.1-4.34-2.78-4.49-1.94-9.82-2.1-14.75-2.48-1.08-.08-8.49-.6-4.85,1.7,6.89,4.38,13.84,14.98,13.84,14.98,0,0-12.83-10.02-23.42-13.62-7.47-2.56-12.22-2.26-14.96-1.49-1.53.43-1.88,2.44-.64,3.4,25.75,19.9,25.08,34.15,25.08,34.15-2-15.77-40.12-40.14-31.68-30.03,8.43,10.1,22.44,39.02,32.78,48.93,10.34,9.9,48.41,16.22,54.05,9.51,3.9-4.65-2.84-17.35-4.73-21.63-4.57-10.38-10.22-20.4-16.88-29.58Zm-221.37,75.2c-8.02-19.5-19.08-38.8-30.35-52.88-11.39-14.42-23.24-25.04-36.68-35.03-1.03-.76-2.27-1.43-3.68-2.02-4.09-1.7-4.29,3.21-3.32,5.59,1.95,4.7,5.9,9.35,8.45,13.84,5.76,10.19,10.98,20.7,15.6,31.47,9.17,21.31,16.03,43.63,20.29,66.45-7.43-23.89-17.81-46.84-30.75-68.26-6.41-10.59-13.44-20.8-21.05-30.57-3.66-4.7-7.78-9.07-11.43-13.76-6.4-8.22-11.15-7.94-20.52-4.73-4.21,1.43-5.08,3.18-5.76,7.61-1.24,8.24.28,16.61.56,24.85.41,12.03,1.61,24.04,3.98,35.89,2.4,11.84,5.98,23.53,11.38,34.56-6.97-10.11-12.39-21.39-16.61-33.08-4.24-11.72-7.31-23.88-9.58-36.19-.76-4.09.23-24.73-6.24-24.13-2.85.27-6.25,5.43-7.95,7.45-5.49,6.45-8.83,14.58-9.83,22.96-2.64,20.95-.69,42.53,2.68,61.85,1.72,9.75,3.58,18.75,5.81,27.78,2.24,9.03,4.81,18.02,7.63,26.94,11.42,35.65,26.95,70.39,43.24,101.36,16.23,30.93,33.16,58.1,47.77,77.3,14.56,19.19,26.95,30.31,33.95,28.4,7.15-1.98,16.85-19.02,24.62-45.92,7.71-26.85,13.42-63.73,12.48-104.14-.77-40.38-8.26-84.27-24.69-123.6Zm113.84,116.98c-7.05-15.38-25.53-28.29-40.28-36.59-1.39-.77-4.89-4.85-5.36-3.33-.15.49,1.23,4.66,1.36,5.15,1.47,5.49,5.01,17.18,6.48,22.67l-.03-.07c-3.9-8.24-15.54-31.62-23.29-36.4-2.48-1.52-5.68-2.62-8.22-1.24-3.01,1.64-3.45,5.74-3.2,9.16,1.11,15.18,15.32,44.16,22.54,57.56-1.25-2.33-3.78-4.45-5.38-6.61-1.89-2.56-3.66-5.21-5.29-7.94-2.27-3.81-6.69-9.07-8.5-13.09-.67-1.48-2.46-2.77-3.84-1.89-.92.6-1.09,1.86-1.16,2.96-1,18.14-.67,32.46,11.33,46.15,7.94,9.08,27.35,20.18,38.17,25.45,5.38,2.62,10.97,4.81,16.67,6.63,4.76,1.5,10.78,3.26,13.59-2.38,1.51-3.02,1.28-6.57.97-9.92-1.61-16.83.47-40.9-6.57-56.28Zm-448.41-40.36c-5.74.84-24.08,32.35-34.65,39.21,4.98-3.24,8.05-11.04,10.7-15.65,3.42-5.94,6.3-12.08,8.69-18.35,2.41-6.31,4.32-12.75,5.85-19.27.36-1.52,1.57-3.92,1.59-5.95.01-.77-.16-1.51-.61-2.1-1.52-2.02-5.36-2.72-7.45-1.31-24.41,16.48-43.17,31.55-47.31,36.71-4.85,6.03-20.33,60.36-12.86,70.52,7.46,10.15,46.03-8.59,58.05-18.33,12.03-9.74,23.76-66.31,18.01-65.47Zm-178.98-132.21c4.89-6.34-4.84-5.19-4.84-5.19-36.11,37.31-64.7,41.18-64.7,41.18,16.15-3.2,40.25-33.87,40.25-33.87,0,0-39-.77-54.64,11.99-15.64,12.76-49,61.73-31.26,67.94,17.75,6.21,65.91-6.31,72.92-11.63,7.01-5.33,29.85-54.33,42.26-70.42Zm346.83,35.79c-.89-5.62-12.79-57.3-19.25-53.5l-.73.61c-3.6,3.97-.52,12.72.03,17.37,1.07,9.03,1.04,18.03.97,27.12-.15,17.05-1.36,34.11-3.62,51.01-.93-33.16-5.69-66.23-14.16-98.32-2.86-10.83-8.5-11.4-18.65-12-4.14-.24-8.95-1.62-12.6.64-3.68,2.29-5.86,7.75-7.25,11.61-4.62,12.92-9.09,25.69-12.12,39.13-2.15,9.52-3.72,19.18-4.7,28.9-.92,8.96-2.66,19.74-1.2,28.69-2.85-17.34-3.77-34.99-2.85-52.52.48-8.87,1.41-17.71,2.81-26.48.43-2.7,7.95-27.98-.33-23.84-6.58,3.29-12.24,8.04-16.41,13.9-20.86,29.27-33.98,64.72-41.77,101.64-7.75,36.92-10.3,75.32-9.55,110.41,1.52,70.08,15.9,127.23,30.24,129.2,14.75,2.01,61.85-46.71,95.88-115.71,17.03-34.42,30.74-73.79,35.73-113.41,2.69-21.39,2.93-43.15-.44-64.46Zm18.64,132.52c-.64.2-1.12.63-1.52,1.19-1.03,1.48-1.39,3.81-1.91,5.07-2.23,5.43-4.14,11.03-5.65,16.77-1.48,5.7-2.56,11.56-3.14,17.55-.44,4.65-2.25,11.8-.33,16.65-4.06-10.3-1.09-42.19-4.78-45.72-3.68-3.53-24.16,42.93-20.52,56.03,3.62,13.11,21.65,46.16,32.18,42.71,10.53-3.45,27.18-50.22,26.78-57-.33-5.79-6.06-26.14-15.11-50.38-.77-2.06-3.88-3.54-6-2.86Zm-154.56-161.01c4.08-11.73,7.53-24.32,8.78-36.92.95-9.5,3.22-29.06-6.92-34.76-4.74-2.65-5.53,2.97-6.77,6.81-2.05,6.34-4.26,12.64-6.62,18.89-4.72,12.41-10.03,24.6-15.96,36.49-13.56,27.1-30.19,52.6-50.2,74.85,17.16-24.52,30.28-51.38,40.17-79.13,4.64-13.08,8.57-26.41,11.75-39.92,1.61-6.86,3.05-13.76,4.29-20.7.68-3.82,4.38-13.74.23-16.49-3.16-2.06-9.75,1.93-12.86,3.13-5.13,1.96-10.17,4.12-15.14,6.46-10.21,4.81-20.04,10.4-29.39,16.69-18.75,12.59-35.61,28-49.71,45.63,5.62-7.03,10.19-14.9,15.98-21.88,6.12-7.38,12.68-14.37,19.68-20.92,6.86-6.45,14.11-12.45,21.69-18.01,3.81-2.8,7.7-5.46,11.67-8.02,3.06-1.97,8.55-3.77,10.81-6.49,1.27-1.53,1.69-3.82.71-5.54-1.77-3.08-8.98-1.72-11.91-1.45-5.21.49-10.33,1.89-15.03,4.22-15.83,7.82-30.62,18.01-44.31,29.87-6.84,5.86-13.54,12.43-19.61,18.73-6.1,6.31-11.67,12.41-16.81,18.15l-14.14,15.89-4.17,4.75-4.4,5.13c-2.88,3.38-5.69,6.86-8.42,10.27-10.94,13.69-20.76,27.4-29.61,40.53-8.85,13.16-16.73,25.73-23.64,37.31-6.9,11.57-12.83,21.96-17.61,31.27-4.81,9.12-8.47,17.1-10.62,23.53-2.13,6.35-2.69,11.53-.88,14.65,1.87,3.22,7.05,6.21,15.46,8.35,4.2,1.05,9.07,1.65,14.76,2.06,5.64.33,11.88.19,18.77-.33,13.67-1.17,29.46-4.36,46.15-9.64,16.71-5.27,34.23-12.68,51.44-21.87,17.23-9.19,34.15-20.16,49.8-32.35,3.92-3.05,7.75-6.17,11.49-9.35,3.37-2.74,8.38-7.54,12.46-11.77,8.39-8.68,15.63-17.61,21.88-26.44,6.21-8.8,11.43-17.54,15.72-25.94,4.29-8.39,7.98-16.97,11.05-25.75Zm699.35-386.19v.96H160.81v-.96c28.78-.64,57.57-1.16,86.35-1.62-15.74-7.53-31.07-16.42-29.63-25,2.58-15.37,53.08-32.39,74.77-23.89,21.68,8.51,46.25,40.73,42.56,41.75-3.69,1.03-36.81-12.17-47.94-9.06,0,0,22.48,7.8,39.66,15.06,12.55-.15,25.12-.31,37.67-.44-17.76-14.34-34.07-30.97-48.76-48.15-5.24-6.09-10.22-12.32-15-18.43-4.8-6.15-9.29-12.32-13.24-18.13-7.97-11.67-14.66-22.42-21.18-31.85-6.44-9.5-12.78-17.62-17.87-24.25-5.05-6.66-8.67-11.79-8.69-15.6-.07-3.54,3.48-7.82,10.73-11.53,7.18-3.74,18.21-6.78,31.51-7.71,13.23-.99,28.61.15,43.81,2.73,7.61,1.29,15.16,2.82,22.5,4.54,7.47,1.72,15.11,3.8,22.86,6.21,30.99,9.63,63.62,25.03,91.57,46.18,27.97,21.07,51.18,47.83,63.61,78.75,2.66,6.62,7.34,24.95-4.41,21.15-7.9-2.54-17.03-14.7-22.97-20.35-15.03-14.28-30.26-29.23-49.72-37.29,28.54,17.57,51.96,42.93,67.66,72.49,12.2-.05,24.42-.12,36.63-.17,9.29-.05,18.57-.09,27.86-.15,46.7-.19,93.4-.19,140.1-.29l140.11.24,26.79.15,26.07.13c-5.1-5.61-8.78-13.68-5.44-19.03,3.33-5.33,7.42-10.35,11.27-15.32,7.79-10.08,16.07-19.78,24.82-29.05,17.6-18.67,37.04-35.61,58-50.44-20.12,11.48-39.17,24.77-56.93,39.61-8.94,7.47-17.55,15.33-25.79,23.56-4.22,4.21-8.37,8.52-12.4,12.92-2.31,2.5-7.9,8.19-8.69.65-.79-7.58,6.32-19.15,9.75-25.67,4.34-8.24,9.55-16.04,15.44-23.25,11.64-14.29,25.86-26.32,41.36-36.24,30.31-19.41,66.37-30.95,100.61-36.08,8.58-1.27,17-2.22,25.28-2.73,8.22-.53,16.25-.79,24.33-.77,16.1,0,31.56,1.55,44.21,5.07,12.68,3.41,22.34,8.7,28.39,13.98,6.1,5.29,8.81,10.52,9.07,14.16.23,3.65-1.91,7.86-5.13,12.77-3.25,4.9-7.47,10.46-12.62,16.9-5.18,6.49-11.31,13.82-19.43,22.34-4.05,4.26-8.67,8.79-13.91,13.59-5.17,4.69-10.58,9.44-16.23,14.14-21.93,18.27-47.09,36.04-74.13,49.95,75.21.73,150.41,1.76,225.62,3.46Zm-847.02-3.85c-24.86-10.88-47.93-26.53-67.19-46.47,14.04,18.05,31.26,33.76,50.62,46.62,5.53-.04,11.05-.11,16.57-.15Zm510.11-.52l18.68.09c7.74-3.58,15.71-6.69,23.85-9.2-10.69.95-21.3,2.78-31.7,5.47-3.7.95-7.27,2.26-10.83,3.64ZM160.81,853.71c25.89.56,51.79,1.04,77.69,1.47-24.38,18.35-44.33,37.16-57.94,52.96-14.72,17.14-22.16,30.85-19.05,37.37,3.21,6.73,20.67,13.55,46.7,17.14,25.98,3.65,60.3,4.13,96.2-.2,17.93-2.14,36.27-5.47,54.11-10.06,8.91-2.3,17.69-4.89,26.22-7.79,8.51-2.88,16.51-5.9,25.71-10.06,9.03-4.1,18.4-9.08,27.63-15.04,9.25-5.98,18.51-13.17,27.17-21.55,4.32-4.17,8.38-8.6,12.16-13.27,2.01-2.49,7.27-6.73,6.6-10.46-1.25-6.78-11.19-.68-14.5.45-5.34,1.81-10.74,3.45-16.19,4.93-10.54,2.84-21.26,5.02-32.07,6.51,21.45-6.82,41.72-16.44,60.25-28.32l29.58.15,41.74.21,28.31.13,140.1.24c46.71-.11,93.41-.11,140.11-.28,9.11-.04,18.21-.09,27.31-.13,22.21-.11,44.41-.2,66.62-.33l.11.13c7.91,8.58,16.83,16.2,26.01,22.64,9.13,6.34,18.67,11.79,28.11,16.3,9.42,4.49,18.91,8.24,28.09,11.32,9.33,3.12,17.59,5.38,26.25,7.47,8.61,2.08,17.28,3.84,25.93,5.29,17.29,2.92,34.48,4.65,50.95,5.42,65.89,3.08,119.97-9.35,122.57-23.53,1.51-8.18-10.85-26.77-32.27-48.17,16.89-.29,33.78-.6,50.66-.96v-.91H160.81v.91Z"/></g><g><path class="uuid-0311d230-007a-4768-8b98-9e899a72cc8e" d="m515.05,705.58v-83.78h10.15v41.56h.98l37.64-41.56h13.25l-35.18,37.8,35.18,45.98h-12.27l-29.13-38.95-10.47,11.78v27.16h-10.15Z"/><path class="uuid-0311d230-007a-4768-8b98-9e899a72cc8e" d="m587.83,705.58h-10.64l30.76-83.78h10.47l30.76,83.78h-10.64l-25.04-70.53h-.65l-25.04,70.53Zm3.93-32.73h42.87v9h-42.87v-9Z"/><path class="uuid-0311d230-007a-4768-8b98-9e899a72cc8e" d="m722.96,621.8v83.78h-9.82l-45.65-65.78h-.82v65.78h-10.15v-83.78h9.82l45.82,65.95h.82v-65.95h9.98Z"/><path class="uuid-0311d230-007a-4768-8b98-9e899a72cc8e" d="m783.31,642.75c-.49-4.15-2.48-7.36-5.97-9.65-3.49-2.29-7.77-3.44-12.85-3.44-3.71,0-6.95.6-9.72,1.8-2.77,1.2-4.92,2.85-6.46,4.95-1.54,2.1-2.31,4.49-2.31,7.16,0,2.24.54,4.15,1.62,5.75,1.08,1.6,2.46,2.92,4.15,3.97,1.69,1.05,3.46,1.91,5.32,2.58,1.85.67,3.56,1.21,5.11,1.62l8.51,2.29c2.18.57,4.62,1.36,7.3,2.37,2.69,1.01,5.26,2.38,7.73,4.11,2.47,1.73,4.51,3.95,6.12,6.65,1.61,2.7,2.41,6.01,2.41,9.94,0,4.53-1.18,8.62-3.54,12.27-2.36,3.65-5.8,6.56-10.31,8.71-4.51,2.15-9.99,3.23-16.42,3.23-6,0-11.19-.97-15.57-2.9-4.38-1.94-7.81-4.64-10.31-8.1-2.5-3.46-3.91-7.49-4.23-12.07h10.47c.27,3.16,1.34,5.78,3.21,7.83,1.87,2.06,4.24,3.59,7.12,4.58,2.88,1,5.98,1.49,9.31,1.49,3.87,0,7.35-.63,10.43-1.9s5.52-3.04,7.32-5.32c1.8-2.28,2.7-4.94,2.7-8,0-2.78-.78-5.04-2.33-6.79-1.55-1.74-3.6-3.16-6.14-4.25-2.54-1.09-5.28-2.05-8.22-2.86l-10.31-2.95c-6.55-1.88-11.73-4.57-15.55-8.06-3.82-3.49-5.73-8.06-5.73-13.7,0-4.69,1.28-8.79,3.83-12.29s5.99-6.23,10.31-8.18c4.32-1.95,9.16-2.92,14.5-2.92s10.2.96,14.4,2.88c4.2,1.92,7.53,4.55,10,7.88,2.47,3.33,3.77,7.1,3.91,11.33h-9.82Z"/><path class="uuid-0311d230-007a-4768-8b98-9e899a72cc8e" d="m808.64,705.58h-10.64l30.76-83.78h10.47l30.76,83.78h-10.64l-25.04-70.53h-.65l-25.04,70.53Zm3.93-32.73h42.87v9h-42.87v-9Z"/><path class="uuid-0311d230-007a-4768-8b98-9e899a72cc8e" d="m923.16,642.75c-.49-4.15-2.48-7.36-5.97-9.65-3.49-2.29-7.77-3.44-12.85-3.44-3.71,0-6.95.6-9.72,1.8-2.77,1.2-4.92,2.85-6.46,4.95-1.54,2.1-2.31,4.49-2.31,7.16,0,2.24.54,4.15,1.62,5.75,1.08,1.6,2.46,2.92,4.15,3.97,1.69,1.05,3.46,1.91,5.32,2.58,1.85.67,3.56,1.21,5.11,1.62l8.51,2.29c2.18.57,4.62,1.36,7.3,2.37,2.69,1.01,5.26,2.38,7.73,4.11,2.47,1.73,4.51,3.95,6.12,6.65,1.61,2.7,2.41,6.01,2.41,9.94,0,4.53-1.18,8.62-3.54,12.27-2.36,3.65-5.8,6.56-10.31,8.71-4.51,2.15-9.99,3.23-16.42,3.23-6,0-11.19-.97-15.57-2.9-4.38-1.94-7.81-4.64-10.31-8.1-2.5-3.46-3.91-7.49-4.23-12.07h10.47c.27,3.16,1.34,5.78,3.21,7.83,1.87,2.06,4.24,3.59,7.12,4.58,2.88,1,5.98,1.49,9.31,1.49,3.87,0,7.35-.63,10.43-1.9s5.52-3.04,7.32-5.32c1.8-2.28,2.7-4.94,2.7-8,0-2.78-.78-5.04-2.33-6.79-1.55-1.74-3.6-3.16-6.14-4.25-2.54-1.09-5.28-2.05-8.22-2.86l-10.31-2.95c-6.55-1.88-11.73-4.57-15.55-8.06-3.82-3.49-5.73-8.06-5.73-13.7,0-4.69,1.28-8.79,3.83-12.29s5.99-6.23,10.31-8.18c4.32-1.95,9.16-2.92,14.5-2.92s10.2.96,14.4,2.88c4.2,1.92,7.53,4.55,10,7.88,2.47,3.33,3.77,7.1,3.91,11.33h-9.82Z"/><path class="uuid-0311d230-007a-4768-8b98-9e899a72cc8e" d="m157.72,750.27c-.49-4.15-2.48-7.36-5.97-9.66-3.49-2.29-7.77-3.44-12.85-3.44-3.71,0-6.95.6-9.72,1.8-2.77,1.2-4.92,2.85-6.46,4.95-1.54,2.1-2.31,4.49-2.31,7.16,0,2.24.54,4.15,1.62,5.75,1.08,1.6,2.46,2.92,4.15,3.97,1.69,1.05,3.46,1.91,5.32,2.58,1.85.67,3.56,1.21,5.11,1.62l8.51,2.29c2.18.57,4.62,1.36,7.3,2.37,2.69,1.01,5.26,2.38,7.73,4.11,2.47,1.73,4.51,3.95,6.12,6.65,1.61,2.7,2.41,6.01,2.41,9.94,0,4.53-1.18,8.62-3.54,12.27-2.36,3.66-5.8,6.56-10.31,8.71-4.51,2.15-9.99,3.23-16.42,3.23-6,0-11.19-.97-15.57-2.9-4.38-1.94-7.81-4.64-10.31-8.1-2.5-3.46-3.91-7.49-4.23-12.07h10.47c.27,3.16,1.34,5.77,3.21,7.83,1.87,2.06,4.24,3.59,7.12,4.58,2.88,1,5.98,1.49,9.31,1.49,3.87,0,7.35-.63,10.43-1.9,3.08-1.27,5.52-3.04,7.32-5.32,1.8-2.28,2.7-4.94,2.7-8,0-2.78-.78-5.04-2.33-6.79-1.55-1.75-3.6-3.16-6.14-4.25-2.54-1.09-5.28-2.05-8.22-2.86l-10.31-2.95c-6.55-1.88-11.73-4.57-15.55-8.06s-5.73-8.06-5.73-13.71c0-4.69,1.27-8.79,3.82-12.29,2.55-3.5,5.99-6.23,10.31-8.18,4.32-1.95,9.16-2.93,14.5-2.93s10.2.96,14.4,2.88c4.2,1.92,7.53,4.55,10,7.88,2.47,3.33,3.77,7.1,3.91,11.33h-9.82Z"/><path class="uuid-0311d230-007a-4768-8b98-9e899a72cc8e" d="m234.6,729.32h10.15v55.47c0,5.73-1.34,10.83-4.03,15.32-2.69,4.49-6.47,8.02-11.35,10.59-4.88,2.58-10.61,3.87-17.18,3.87s-12.3-1.29-17.18-3.87c-4.88-2.58-8.67-6.11-11.35-10.59-2.69-4.49-4.03-9.59-4.03-15.32v-55.47h10.15v54.66c0,4.09.9,7.73,2.7,10.9,1.8,3.18,4.37,5.67,7.71,7.49,3.34,1.81,7.34,2.72,12.01,2.72s8.67-.91,12.03-2.72c3.36-1.81,5.93-4.31,7.71-7.49,1.79-3.18,2.68-6.81,2.68-10.9v-54.66Z"/><path class="uuid-0311d230-007a-4768-8b98-9e899a72cc8e" d="m259.27,813.1v-83.78h50.24v9h-40.09v28.31h36.33v9h-36.33v37.47h-10.15Z"/><path class="uuid-0311d230-007a-4768-8b98-9e899a72cc8e" d="m321.09,813.1v-83.78h50.24v9h-40.09v28.31h36.33v9h-36.33v37.47h-10.15Z"/><path class="uuid-0311d230-007a-4768-8b98-9e899a72cc8e" d="m382.92,813.1v-83.78h28.31c6.55,0,11.92,1.11,16.12,3.33s7.31,5.27,9.33,9.14c2.02,3.87,3.03,8.28,3.03,13.21s-1.01,9.31-3.03,13.13c-2.02,3.82-5.11,6.81-9.29,8.98-4.17,2.17-9.5,3.25-16,3.25h-22.91v-9.16h22.58c4.47,0,8.08-.66,10.82-1.96,2.74-1.31,4.73-3.17,5.97-5.58,1.24-2.41,1.86-5.3,1.86-8.65s-.63-6.29-1.88-8.8c-1.25-2.51-3.26-4.45-6.01-5.83s-6.4-2.07-10.92-2.07h-17.84v74.78h-10.15Zm39.44-37.64l20.62,37.64h-11.78l-20.29-37.64h11.46Z"/><path class="uuid-0311d230-007a-4768-8b98-9e899a72cc8e" d="m454.23,813.1h-10.64l30.76-83.78h10.47l30.76,83.78h-10.64l-25.04-70.53h-.65l-25.04,70.53Zm3.93-32.73h42.87v9h-42.87v-9Z"/><path class="uuid-0311d230-007a-4768-8b98-9e899a72cc8e" d="m576.27,755.5c-.9-2.75-2.08-5.23-3.54-7.43-1.46-2.19-3.19-4.07-5.2-5.62-2-1.55-4.28-2.74-6.81-3.56-2.54-.82-5.32-1.23-8.35-1.23-4.96,0-9.48,1.28-13.54,3.85-4.06,2.56-7.3,6.34-9.7,11.33-2.4,4.99-3.6,11.11-3.6,18.37s1.21,13.38,3.64,18.37c2.43,4.99,5.71,8.77,9.86,11.33s8.81,3.84,13.99,3.84c4.8,0,9.03-1.03,12.7-3.09,3.67-2.06,6.53-4.98,8.59-8.75s3.09-8.23,3.09-13.36l3.11.66h-25.2v-9h31.91v9c0,6.9-1.47,12.9-4.4,18-2.93,5.1-6.97,9.05-12.11,11.84-5.14,2.8-11.04,4.19-17.69,4.19-7.42,0-13.93-1.75-19.53-5.24s-9.97-8.45-13.09-14.89-4.68-14.07-4.68-22.91c0-6.63.89-12.59,2.68-17.9,1.79-5.3,4.32-9.82,7.59-13.56,3.27-3.74,7.15-6.6,11.62-8.59,4.47-1.99,9.4-2.99,14.77-2.99,4.42,0,8.54.66,12.38,1.98,3.83,1.32,7.25,3.19,10.27,5.6,3.01,2.41,5.53,5.29,7.55,8.63,2.02,3.34,3.41,7.04,4.17,11.11h-10.47Z"/><path class="uuid-0311d230-007a-4768-8b98-9e899a72cc8e" d="m608.96,729.32v83.78h-10.15v-83.78h10.15Z"/><path class="uuid-0311d230-007a-4768-8b98-9e899a72cc8e" d="m669.31,750.27c-.49-4.15-2.48-7.36-5.97-9.66-3.49-2.29-7.77-3.44-12.85-3.44-3.71,0-6.95.6-9.72,1.8-2.77,1.2-4.92,2.85-6.46,4.95-1.54,2.1-2.31,4.49-2.31,7.16,0,2.24.54,4.15,1.62,5.75,1.08,1.6,2.46,2.92,4.15,3.97,1.69,1.05,3.46,1.91,5.32,2.58,1.85.67,3.56,1.21,5.11,1.62l8.51,2.29c2.18.57,4.62,1.36,7.3,2.37,2.69,1.01,5.26,2.38,7.73,4.11,2.47,1.73,4.51,3.95,6.12,6.65,1.61,2.7,2.41,6.01,2.41,9.94,0,4.53-1.18,8.62-3.54,12.27-2.36,3.66-5.8,6.56-10.31,8.71s-9.99,3.23-16.42,3.23c-6,0-11.19-.97-15.57-2.9-4.38-1.94-7.81-4.64-10.31-8.1-2.5-3.46-3.91-7.49-4.23-12.07h10.47c.27,3.16,1.34,5.77,3.21,7.83s4.24,3.59,7.12,4.58c2.88,1,5.98,1.49,9.31,1.49,3.87,0,7.35-.63,10.43-1.9,3.08-1.27,5.52-3.04,7.32-5.32s2.7-4.94,2.7-8c0-2.78-.78-5.04-2.33-6.79-1.55-1.75-3.6-3.16-6.14-4.25-2.54-1.09-5.28-2.05-8.22-2.86l-10.31-2.95c-6.55-1.88-11.73-4.57-15.55-8.06s-5.73-8.06-5.73-13.71c0-4.69,1.28-8.79,3.83-12.29,2.55-3.5,5.99-6.23,10.31-8.18,4.32-1.95,9.16-2.93,14.5-2.93s10.2.96,14.4,2.88c4.2,1.92,7.53,4.55,10,7.88,2.47,3.33,3.77,7.1,3.91,11.33h-9.82Z"/><path class="uuid-0311d230-007a-4768-8b98-9e899a72cc8e" d="m686.62,738.32v-9h62.84v9h-26.35v74.78h-10.15v-74.78h-26.35Z"/><path class="uuid-0311d230-007a-4768-8b98-9e899a72cc8e" d="m786.04,729.32h12.11l28.47,69.55h.98l28.47-69.55h12.11v83.78h-9.49v-63.65h-.82l-26.18,63.65h-9.16l-26.18-63.65h-.82v63.65h-9.49v-83.78Z"/><path class="uuid-0311d230-007a-4768-8b98-9e899a72cc8e" d="m882.72,813.1v-83.78h50.56v9h-40.42v28.31h37.8v9h-37.8v28.47h41.07v9h-51.22Z"/><path class="uuid-0311d230-007a-4768-8b98-9e899a72cc8e" d="m945.85,729.32h12.11l28.47,69.55h.98l28.47-69.55h12.11v83.78h-9.49v-63.65h-.82l-26.18,63.65h-9.16l-26.18-63.65h-.82v63.65h-9.49v-83.78Z"/><path class="uuid-0311d230-007a-4768-8b98-9e899a72cc8e" d="m1113.21,771.21c0,8.84-1.59,16.47-4.79,22.91-3.19,6.44-7.57,11.4-13.13,14.89s-11.92,5.24-19.06,5.24-13.5-1.75-19.06-5.24-9.94-8.45-13.13-14.89c-3.19-6.44-4.79-14.07-4.79-22.91s1.59-16.47,4.79-22.91c3.19-6.44,7.57-11.4,13.13-14.89,5.56-3.49,11.92-5.24,19.06-5.24s13.5,1.75,19.06,5.24c5.56,3.49,9.94,8.46,13.13,14.89,3.19,6.44,4.79,14.07,4.79,22.91Zm-9.82,0c0-7.25-1.21-13.38-3.62-18.37-2.41-4.99-5.67-8.77-9.78-11.33s-8.69-3.85-13.77-3.85-9.66,1.28-13.77,3.85c-4.11,2.56-7.36,6.34-9.78,11.33-2.41,4.99-3.62,11.11-3.62,18.37s1.21,13.38,3.62,18.37c2.41,4.99,5.67,8.77,9.78,11.33,4.1,2.56,8.69,3.84,13.77,3.84s9.66-1.28,13.77-3.84,7.36-6.34,9.78-11.33c2.41-4.99,3.62-11.11,3.62-18.37Z"/><path class="uuid-0311d230-007a-4768-8b98-9e899a72cc8e" d="m1124.47,813.1v-83.78h28.31c6.55,0,11.92,1.11,16.12,3.33s7.31,5.27,9.33,9.14c2.02,3.87,3.03,8.28,3.03,13.21s-1.01,9.31-3.03,13.13c-2.02,3.82-5.11,6.81-9.29,8.98-4.17,2.17-9.5,3.25-16,3.25h-22.91v-9.16h22.58c4.47,0,8.08-.66,10.82-1.96,2.74-1.31,4.73-3.17,5.97-5.58,1.24-2.41,1.86-5.3,1.86-8.65s-.63-6.29-1.88-8.8c-1.25-2.51-3.26-4.45-6.01-5.83s-6.4-2.07-10.92-2.07h-17.84v74.78h-10.15Zm39.44-37.64l20.62,37.64h-11.78l-20.29-37.64h11.46Z"/><path class="uuid-0311d230-007a-4768-8b98-9e899a72cc8e" d="m1202.49,729.32v83.78h-10.15v-83.78h10.15Z"/><path class="uuid-0311d230-007a-4768-8b98-9e899a72cc8e" d="m1220.46,813.1h-10.64l30.76-83.78h10.47l30.76,83.78h-10.64l-25.04-70.53h-.65l-25.04,70.53Zm3.93-32.73h42.87v9h-42.87v-9Z"/><path class="uuid-0311d230-007a-4768-8b98-9e899a72cc8e" d="m1289.15,813.1v-83.78h10.15v74.78h38.95v9h-49.09Z"/></g></svg>