<?xml version="1.0" encoding="UTF-8"?><svg id="uuid-0ef4003e-ab67-4db3-83d4-bc32ebf04d68" xmlns="http://www.w3.org/2000/svg" viewBox="0 0 1080 620"><defs><style>.uuid-957fefe4-f114-4571-9983-7798869121a6{fill:#fff;}.uuid-a6b825ba-ea69-45b7-8d89-709feca08ce4{stroke:#fedb91;}.uuid-a6b825ba-ea69-45b7-8d89-709feca08ce4,.uuid-fe044ff0-85de-44ef-8cbd-60be8ffda42b{fill:none;stroke-linecap:round;stroke-linejoin:round;stroke-width:.48px;}.uuid-475e826c-4ab8-4125-b6fb-32e87b542966,.uuid-67a489be-14cc-4bc2-83be-bc6cb71f448b{fill:#003d7d;}.uuid-fe044ff0-85de-44ef-8cbd-60be8ffda42b{stroke:#fdb824;}.uuid-b69fbd92-d83f-441b-bed3-a0eb61ee1b57{fill:#fdb824;}.uuid-67a489be-14cc-4bc2-83be-bc6cb71f448b{font-family:TimesNewRomanPSMT, 'Times New Roman';font-size:83.03px;}.uuid-bdf6baeb-3fc7-4c98-bfbb-ac88c48eeda4{fill:#fedb91;}</style></defs><g><path class="uuid-b69fbd92-d83f-441b-bed3-a0eb61ee1b57" d="m986.73,219.76h65.42c-6.08-10.99-12.67-21.64-19.68-31.98h-70.06c8.66,10.2,16.82,20.85,24.32,31.98"/><path class="uuid-fe044ff0-85de-44ef-8cbd-60be8ffda42b" d="m986.73,219.76h65.42c-6.08-10.99-12.67-21.64-19.68-31.98h-70.06c8.66,10.2,16.82,20.85,24.32,31.98Z"/><path class="uuid-b69fbd92-d83f-441b-bed3-a0eb61ee1b57" d="m385.42,270.99c8.56-23.93,19.58-46.69,32.78-67.96h-64.15c-11.08,21.63-20.32,44.35-27.51,67.96,0,0,18.07-4.06,43.76-29.75,0,0,11.76,12.35,15.12,29.75"/><path class="uuid-fe044ff0-85de-44ef-8cbd-60be8ffda42b" d="m385.42,270.99c8.56-23.93,19.58-46.69,32.78-67.96h-64.15c-11.08,21.63-20.32,44.35-27.51,67.96,0,0,18.07-4.06,43.76-29.75,0,0,11.76,12.35,15.12,29.75Z"/><polyline class="uuid-bdf6baeb-3fc7-4c98-bfbb-ac88c48eeda4" points="390.44 219.55 418.19 203.03 354.04 203.03 346.04 219.55"/><polygon class="uuid-a6b825ba-ea69-45b7-8d89-709feca08ce4" points="390.44 219.55 418.19 203.03 354.04 203.03 346.04 219.55 390.44 219.55"/><path class="uuid-b69fbd92-d83f-441b-bed3-a0eb61ee1b57" d="m991.28,270.99c-8.58-23.93-19.6-46.69-32.79-67.96h64.17c11.08,21.63,20.3,44.35,27.51,67.96,0,0-18.08-4.06-43.77-29.75,0,0-11.76,12.35-15.11,29.75"/><path class="uuid-fe044ff0-85de-44ef-8cbd-60be8ffda42b" d="m991.28,270.99c-8.58-23.93-19.6-46.69-32.79-67.96h64.17c11.08,21.63,20.3,44.35,27.51,67.96,0,0-18.08-4.06-43.77-29.75,0,0-11.76,12.35-15.11,29.75Z"/><polyline class="uuid-bdf6baeb-3fc7-4c98-bfbb-ac88c48eeda4" points="986.23 219.55 958.49 203.03 1022.66 203.03 1030.65 219.55"/><polygon class="uuid-a6b825ba-ea69-45b7-8d89-709feca08ce4" points="986.23 219.55 958.49 203.03 1022.66 203.03 1030.65 219.55 986.23 219.55"/><path class="uuid-b69fbd92-d83f-441b-bed3-a0eb61ee1b57" d="m688.58,5.26c-156.53,0-292.79,86.61-363.56,214.5h65.42c64.57-95.71,174.01-158.65,298.14-158.65s233.57,62.94,298.15,158.65h65.42C981.38,91.86,845.1,5.26,688.58,5.26"/><path class="uuid-fe044ff0-85de-44ef-8cbd-60be8ffda42b" d="m688.58,5.26c-156.53,0-292.79,86.61-363.56,214.5h65.42c64.57-95.71,174.01-158.65,298.14-158.65s233.57,62.94,298.15,158.65h65.42C981.38,91.86,845.1,5.26,688.58,5.26"/><path class="uuid-957fefe4-f114-4571-9983-7798869121a6" d="m420.58,152.87c-.88.89-.95,1.04-.46,1.95l2.87,5.66c.52.95.78,1.28,1.08,1.57.22.22.92-.04,2.12-.9l1.28-.93c.47.03,1.4.8,1.22,1.35-1.35,1.22-2.66,2.55-4.22,4.07-1.24,1.26-1.97,2.22-3.64,3.92-.62.19-1.36-.61-1.4-1.16l.87-1.11c.77-1,1.19-2.03.37-4.08-.86-2.08-1.95-4.54-3.62-8.16l-5.72-12.25c-1.5-3.15-2.17-5.05-3.35-5.99,1.35-2.18.88-5.33.95-5.4.47-.48.88-.52,1.58-.12,1.37.76,3.17,1.66,6.7,3.32l19.46,9.24c2.98,1.41,4.16,1.91,5.73.76l1.61-1.19c.4-.04,1.36.76,1.26,1.31-1.83,1.7-3.83,3.66-5.72,5.59-1.82,1.85-3.21,3.33-4.81,5.11-.62.19-1.47-.5-1.37-1.19l.98-1.37c.69-1,.58-1.4.35-1.62-.26-.25-1.4-.87-3.21-1.77l-4.17-2.13c-.77-.4-1.14-.17-2.41,1.12m-2.14-1.74c.84-.85.91-1.15-.35-1.8l-3.94-1.99c-2.1-1.04-4.75-2.35-5.86-2.78.56,1.14,1.83,3.84,2.99,6.07l1.86,3.66c.67,1.31.96,1.24,1.88.31l3.42-3.48Z"/><path class="uuid-957fefe4-f114-4571-9983-7798869121a6" d="m434.16,119.93c-3.12-3.82-3.82-4.52-5.84-3.22l-.83.54c-.57.12-1.52-1.04-1.07-1.47,3.22-2.96,6.23-5.68,10.49-9.16,3.31-2.69,6.87-5.06,10.47-6.31,6.81-2.41,13.58-.02,17.69,5.01,4.39,5.39,5.36,11.84,2.6,17.91-1.62,3.6-4.5,6.81-8.65,10.19-1.89,1.54-4.1,2.94-5.54,4.12-1.94,1.58-3.95,3.29-6.19,5.24-.52.02-1.3-.95-1.14-1.41l1.08-1.22c1.58-1.76,1.56-2.27-1.46-5.98m4.54-6.18c1.81,2.21,3.07,3.6,4.48,3.85,1.38.22,2.85-.37,4.29-1.55,6.97-5.68,4.29-13.81-.17-19.28-5.91-7.25-13.24-8.44-20.53-2.5-1.08.89-1.69,1.71-1.66,2.23s.6,1.31,1.62,2.56l11.97,14.7Z"/><path class="uuid-957fefe4-f114-4571-9983-7798869121a6" d="m495.86,92.22c-1.07.63-1.18.76-.95,1.77l1.32,6.22c.26,1.05.42,1.43.64,1.79.16.27.9.19,2.28-.32l1.47-.57c.45.15,1.15,1.13.84,1.62-1.62.83-3.23,1.78-5.13,2.85-1.52.9-2.47,1.64-4.53,2.85-.65.02-1.16-.94-1.06-1.48l1.13-.85c.99-.77,1.68-1.65,1.41-3.85-.3-2.23-.71-4.88-1.4-8.81l-2.37-13.31c-.64-3.43-.8-5.44-1.7-6.66,1.86-1.76,2.22-4.93,2.31-4.98.58-.35.98-.28,1.55.29,1.12,1.08,2.64,2.42,5.62,4.94l16.43,13.94c2.52,2.13,3.53,2.92,5.35,2.21l1.86-.73c.4.06,1.12,1.08.88,1.59-2.2,1.18-4.64,2.56-6.97,3.93-2.23,1.32-3.95,2.39-5.95,3.69-.65.02-1.29-.86-1.01-1.51l1.3-1.07c.92-.79.92-1.2.76-1.47-.18-.31-1.13-1.2-2.64-2.54l-3.47-3.13c-.65-.58-1.06-.46-2.62.46m-1.62-2.24c1.03-.61,1.17-.87.13-1.82l-3.3-2.93c-1.76-1.56-3.99-3.5-4.94-4.19.24,1.24.78,4.18,1.32,6.63l.86,4.01c.31,1.44.61,1.45,1.73.79l4.2-2.48Z"/><path class="uuid-957fefe4-f114-4571-9983-7798869121a6" d="m533.86,85.89c-4.31,2.05-7.56,2.1-8.81,2-1.38-.61-3.59-3.69-5.11-6.88.04-.76,1.09-1.32,1.71-.99,2.39,2.6,7.57,5.42,11.56,3.53,3.46-1.65,3.92-4.8,2.81-7.14-1.8-3.79-6.43-4.35-9.91-4.42-4.18-.08-9.21-1.14-11.42-5.77-2.56-5.27-.18-10.89,6.62-14.12,1.54-.73,3.56-1.46,5.7-1.79.7-.1,1.16-.21,1.77-.38.86.85,2.53,3.16,4.02,6.3.03.68-1.12,1.28-1.76,1.01-1.93-2.01-5.57-4.47-8.95-2.87-3.09,1.47-3.82,4.28-2.7,6.62,1.02,2.16,3.88,3.21,6.8,3.32l3.88.17c3.63.16,8.63,1.12,11.08,6.28,2.74,5.76-.21,11.76-7.28,15.12"/><path class="uuid-957fefe4-f114-4571-9983-7798869121a6" d="m550.82,44.66c-.43-1.17-.53-1.42-1.7-.98l-3.02,1.12c-3.56,1.31-3.87,3.64-4.01,7.73-.48.51-1.44.76-1.96.23-.22-3.74-1.09-6.85-1.45-8.88.14-.22.35-.4.59-.5.25-.09.51-.13.76-.06.55.74.77.88,4.47-.49l18.12-6.69c3.22-1.19,3.93-1.5,3.99-2.69.16-.17.29-.27.58-.38.29-.11.7-.04.85.07.12,1.84,1.24,5.91,2.36,8.65-.08.53-1.36,1.12-1.75.81-1.98-2.81-3.51-4.85-7.17-3.5l-2.92,1.08c-1.17.43-1.26.63-.79,1.9l7.93,21.5c1.67,4.53,2.11,4.81,4.41,4.3l2.05-.48c.44.17.86,1.29.62,1.7-3.2,1.08-5.65,1.92-7.85,2.73-2.34.86-4.85,1.85-8.23,3.2-.5-.15-.91-1.27-.63-1.7l2.1-1.06c2.11-1.05,2.23-1.6.57-6.13"/><path class="uuid-957fefe4-f114-4571-9983-7798869121a6" d="m582,38.89c-1.3-5.03-1.54-5.56-3.73-5.31l-1.41.15c-.57-.12-.9-1.38-.35-1.78,3.71-1.23,7.58-2.43,12.35-3.66,4.28-1.1,8.12-1.39,10.32-.73,3.36.96,5.51,3.08,6.34,6.3,1.15,4.47-1.38,7.16-3.38,8.91-.44.38-.36.68.03,1.17,5.05,5.88,8.08,9.12,11.02,10.56,1.58.72,2.97.69,3.73.54.51.13.71.89.54,1.26-.71.56-2.29,1.07-3.85,1.47-4.62,1.19-7.96.28-11.12-2.77-2.29-2.25-4.08-4.42-5.93-6.78-.95-1.2-1.86-1.4-3.11-1.08-1.76.45-1.84.58-1.58,1.58l1.59,6.18c1.19,4.63,1.58,4.9,3.95,4.72l1.42-.1c.42.16.73,1.37.46,1.76-2.69.58-5.02,1.13-7.44,1.75-2.51.65-4.71,1.27-7.3,2.04-.48-.2-.79-1.4-.45-1.76l1.29-.6c2.15-.98,2.37-1.41,1.18-6.04m3.95-13.19c.45,1.76.64,1.87,3.61,1.11,1.81-.46,2.75-1.19,3.46-2.39.63-1.08,1.18-2.92.42-5.89-1.17-4.53-4.58-6.75-8.5-5.75-2.06.53-2.12.71-1.5,3.12l2.52,9.81Z"/><path class="uuid-957fefe4-f114-4571-9983-7798869121a6" d="m629.2,42.88c-1.23.18-1.38.26-1.54,1.28l-1.13,6.25c-.16,1.08-.15,1.49-.09,1.9.04.31.76.52,2.23.57l1.58.03c.37.31.65,1.48.16,1.81-1.82.16-3.66.43-5.82.7-1.76.25-2.92.58-5.27.93-.61-.23-.73-1.31-.42-1.78l1.36-.36c1.21-.34,2.18-.9,2.76-3.03.58-2.19,1.19-4.8,2.04-8.7l2.83-13.22c.7-3.42,1.32-5.34.95-6.81,2.38-.93,3.92-3.73,4.02-3.74.66-.1,1.02.11,1.33.85.63,1.43,1.53,3.24,3.34,6.7l9.95,19.12c1.53,2.92,2.17,4.04,4.12,4.07l2,.02c.34.21.63,1.42.22,1.81-2.49.26-5.27.62-7.94,1-2.57.38-4.58.72-6.93,1.17-.6-.23-.86-1.29-.36-1.78l1.61-.5c1.15-.38,1.3-.77,1.26-1.08-.06-.36-.6-1.54-1.49-3.35l-2.04-4.21c-.38-.79-.81-.83-2.6-.57m-.66-2.69c1.18-.17,1.41-.36.81-1.64l-1.95-3.97c-1.04-2.1-2.38-4.74-3-5.75-.23,1.24-.86,4.17-1.28,6.64l-.71,4.04c-.27,1.46.01,1.57,1.3,1.38l4.83-.71Z"/><path class="uuid-957fefe4-f114-4571-9983-7798869121a6" d="m676.1,24.14c-.05-5.24-.16-5.87-2.35-6.1l-1.61-.19c-.47-.25-.48-1.39.09-1.77,3.42-.29,7.47-.54,11.98-.58,4.41-.04,7.32.45,9.51,1.26,3.17,1.16,6.37,3.88,6.43,8.92.08,8.51-8.47,9.84-11.23,9.87-.62,0-1.08,0-1.66-.04-.42-.25-.53-1.08-.17-1.4,4.3-1.39,5.15-4.46,5.11-8.31-.03-3.84-2.05-7.97-6.72-7.93-1.92.02-2.01.59-2,2.66l.22,21.91c.05,4.83.36,5.23,2.7,5.58l1.66.24c.58.26.59,1.45.02,1.77-2.91-.07-5.46-.1-7.94-.08-2.5.03-4.99.1-7.79.23-.57-.31-.69-1.5-.12-1.77l1.45-.27c2.34-.44,2.64-.81,2.59-5.63"/><path class="uuid-957fefe4-f114-4571-9983-7798869121a6" d="m718.28,30.21c-.12,1.45-.08,1.55,1.32,1.67l3.57.29c2.69.22,3.35-.09,4.06-2.54l.36-1.27c.39-.38,1.69-.28,1.91.21-.23,1.65-.44,3.5-.6,5.47-.16,1.96-.26,3.83-.29,5.5-.3.45-1.59.39-1.92-.1l-.16-1.31c-.32-2.53-.9-2.99-3.59-3.21l-3.58-.29c-1.39-.12-1.45-.07-1.58,1.48l-.5,6.16c-.19,2.38-.12,4.05.43,4.98.59.99,1.55,1.48,5.33,1.78,4.5.37,6.27.35,9.58-5.26.46-.54,1.73-.23,1.89.42-.43,2.67-2,6.76-2.84,8.1-2.74-.33-7.7-.78-11.94-1.12l-6.73-.54c-2.48-.2-5.02-.36-8.91-.57-.38-.35-.28-1.58.16-1.81l2.45-.17c2.36-.17,2.7-.46,3.08-5.22l1.56-19.3c.38-4.7.1-5.04-2.19-5.7l-1.28-.36c-.43-.35-.28-1.54.26-1.81,2.42.3,4.96.56,7.43.76l10.97.89c3.31.27,6.26.46,6.94.41,0,.83.05,4.58.03,8.07-.26.55-1.46.56-1.94.05-.42-1.86-1.02-3.46-1.63-4.24-.9-1.07-2.41-1.81-4.94-2.02l-4.14-.34c-1.71-.14-1.72-.04-1.87,1.88"/><path class="uuid-957fefe4-f114-4571-9983-7798869121a6" d="m746.88,28.16c.93-5.12.92-5.69-1.17-6.39l-1.35-.46c-.46-.35-.23-1.63.42-1.77,3.88.44,7.91.96,12.77,1.83,4.35.79,7.96,2.13,9.7,3.66,2.64,2.27,3.72,5.11,3.12,8.38-.82,4.55-4.24,5.94-6.81,6.69-.56.16-.61.47-.46,1.08,2.14,7.46,3.54,11.68,5.61,14.21,1.13,1.32,2.41,1.87,3.17,2.05.41.34.27,1.11-.04,1.37-.88.21-2.54.02-4.12-.27-4.7-.85-7.37-3.08-8.95-7.16-1.15-3-1.87-5.72-2.55-8.65-.37-1.49-1.12-2.05-2.39-2.28-1.78-.33-1.91-.24-2.09.78l-1.14,6.29c-.85,4.7-.61,5.12,1.62,5.94l1.33.5c.31.32.09,1.55-.33,1.79-2.69-.59-5.04-1.07-7.48-1.51-2.56-.46-4.82-.82-7.49-1.2-.36-.38-.14-1.61.32-1.79h1.42c2.38,0,2.75-.3,3.6-5m9.11-10.34c-.33,1.79-.19,1.97,2.82,2.52,1.84.33,3,.06,4.14-.73,1.03-.71,2.29-2.17,2.84-5.19.83-4.6-1.34-8.06-5.33-8.78-2.1-.38-2.23-.24-2.68,2.21l-1.8,9.97Z"/><path class="uuid-957fefe4-f114-4571-9983-7798869121a6" d="m801.51,55.46c-1.19-.39-1.35-.39-1.96.44l-3.82,5.07c-.62.89-.81,1.27-.94,1.66-.1.29.45.8,1.73,1.51l1.4.74c.19.45-.09,1.61-.67,1.69-1.69-.68-3.46-1.27-5.51-2.01-1.68-.56-2.85-.79-5.12-1.54-.44-.48-.05-1.5.43-1.77l1.38.3c1.23.25,2.35.18,3.83-1.46,1.49-1.69,3.22-3.75,5.73-6.85l8.5-10.52c2.17-2.73,3.58-4.17,3.91-5.65,2.54.25,5.18-1.56,5.28-1.52.63.21.85.56.8,1.36-.08,1.56-.1,3.58-.04,7.49l.25,21.54c.05,3.3.12,4.58,1.84,5.49l1.78.92c.21.35-.08,1.56-.62,1.71-2.33-.89-4.98-1.83-7.54-2.68-2.46-.82-4.4-1.42-6.7-2.07-.44-.48-.19-1.54.48-1.76l1.66.28c1.2.18,1.51-.1,1.61-.39.12-.35.17-1.64.19-3.66l.08-4.68c.02-.87-.34-1.1-2.07-1.68m.62-2.69c1.14.38,1.43.31,1.46-1.1l.05-4.42c.01-2.35.02-5.3-.08-6.48-.77,1-2.65,3.33-4.14,5.35l-2.46,3.28c-.89,1.18-.69,1.41.53,1.82l4.63,1.54Z"/><path class="uuid-957fefe4-f114-4571-9983-7798869121a6" d="m831.14,80.01c-4.37-1.92-6.54-4.34-7.29-5.35-.45-1.44.44-5.13,1.85-8.37.6-.47,1.71-.04,1.87.65-.4,3.5.87,9.27,4.91,11.04,3.52,1.54,6.2-.17,7.24-2.55,1.68-3.85-.93-7.71-3.16-10.39-2.67-3.21-5.18-7.71-3.12-12.42,2.3-5.39,8.11-7.27,15-4.25,1.57.69,3.43,1.73,5.09,3.13.53.46.92.74,1.44,1.09-.07,1.21-.72,3.99-2.12,7.17-.49.46-1.7,0-1.91-.67.25-2.77-.28-7.14-3.69-8.64-3.14-1.37-5.75-.08-6.79,2.3-.95,2.19.12,5.04,1.95,7.31l2.41,3.04c2.26,2.86,4.81,7.26,2.52,12.49-2.57,5.85-9.03,7.54-16.21,4.4"/><path class="uuid-957fefe4-f114-4571-9983-7798869121a6" d="m864.87,66.3c2.51-4.6,2.73-5.19.94-6.46l-1.31-.96c-.29-.45.27-1.46.94-1.5,3.13,1.42,6.79,3.18,10.75,5.35,3.87,2.12,6.17,3.97,7.69,5.75,2.21,2.56,3.66,6.5,1.25,10.92-4.09,7.47-12.2,4.46-14.62,3.14-.55-.3-.95-.53-1.43-.84-.24-.43.07-1.21.53-1.31,4.44.89,6.68-1.38,8.53-4.75,1.84-3.38,2.11-7.97-2-10.21-1.69-.92-2.05-.47-3.05,1.35l-10.52,19.23c-2.32,4.24-2.24,4.75-.37,6.19l1.33,1.03c.38.5-.2,1.54-.84,1.54-2.51-1.49-4.72-2.75-6.91-3.95-2.19-1.19-4.39-2.35-6.9-3.61-.35-.54.13-1.64.75-1.59l1.4.46c2.26.77,2.7.59,5.02-3.64"/><path class="uuid-957fefe4-f114-4571-9983-7798869121a6" d="m898.78,92.23c-.81,1.2-.82,1.32.34,2.1l2.97,2c2.24,1.5,2.96,1.55,4.78-.23l.94-.93c.53-.15,1.61.58,1.56,1.11-1.02,1.32-2.09,2.85-3.19,4.48-1.11,1.64-2.1,3.22-2.94,4.66-.47.24-1.58-.44-1.62-1.03l.51-1.22c.96-2.36.67-3.05-1.57-4.55l-2.97-2c-1.16-.78-1.23-.77-2.11.53l-3.44,5.13c-1.33,1.98-2.09,3.47-2.06,4.55.04,1.15.62,2.05,3.77,4.16,3.75,2.52,5.3,3.37,10.94.09.66-.24,1.62.65,1.45,1.29-1.68,2.12-5.06,4.92-6.44,5.68-2.23-1.62-6.33-4.44-9.86-6.81l-5.6-3.77c-2.07-1.39-4.21-2.77-7.5-4.85-.17-.49.52-1.53,1.02-1.51l2.23,1.06c2.14,1,2.58.92,5.23-3.04l10.8-16.07c2.64-3.92,2.55-4.35.87-6.04l-.93-.94c-.21-.52.5-1.48,1.11-1.45,1.96,1.45,4.05,2.91,6.12,4.3l9.13,6.14c2.76,1.85,5.24,3.46,5.86,3.75-.42.72-2.2,4.02-3.93,7.05-.49.36-1.54-.22-1.71-.9.54-1.82.81-3.52.65-4.5-.27-1.37-1.21-2.76-3.32-4.17l-3.45-2.32c-1.42-.96-1.48-.87-2.55.73"/><path class="uuid-957fefe4-f114-4571-9983-7798869121a6" d="m924.75,104.4c3.3-4,3.59-4.51,2.1-6.14l-.95-1.05c-.23-.53.59-1.53,1.23-1.34,3.17,2.27,6.43,4.69,10.24,7.82,3.41,2.8,5.91,5.73,6.67,7.9,1.2,3.28.75,6.27-1.36,8.84-2.93,3.57-6.59,3.11-9.19,2.52-.57-.13-.77.11-.93.72-1.77,7.55-2.6,11.91-2.03,15.13.35,1.7,1.19,2.8,1.76,3.33.2.5-.3,1.1-.69,1.18-.87-.25-2.22-1.22-3.46-2.24-3.69-3.04-4.92-6.27-4.31-10.61.46-3.18,1.16-5.9,1.99-8.78.41-1.48.03-2.33-.97-3.16-1.4-1.15-1.56-1.14-2.21-.34l-4.05,4.93c-3.04,3.69-3.03,4.17-1.49,5.97l.92,1.09c.12.43-.68,1.39-1.15,1.4-2.06-1.83-3.88-3.39-5.8-4.96-2.01-1.65-3.81-3.06-5.95-4.69-.12-.5.67-1.47,1.15-1.4l1.24.69c2.07,1.16,2.54,1.08,5.58-2.61m12.98-4.58c-1.15,1.4-1.13,1.62,1.23,3.57,1.44,1.19,2.58,1.52,3.97,1.38,1.24-.12,3.06-.78,5-3.14,2.97-3.61,2.76-7.68-.36-10.25-1.65-1.35-1.83-1.3-3.41.63l-6.43,7.81Z"/><path class="uuid-957fefe4-f114-4571-9983-7798869121a6" d="m949.29,144.71c-.88-.89-1.02-.96-1.94-.49l-5.71,2.79c-.96.51-1.29.77-1.59,1.06-.22.22.03.92.86,2.14l.91,1.29c-.04.47-.81,1.39-1.37,1.2-1.2-1.37-2.51-2.7-4.01-4.3-1.24-1.25-2.19-2-3.87-3.7-.18-.62.64-1.35,1.19-1.38l1.09.89c.99.78,2.01,1.23,4.08.43,2.1-.83,4.56-1.88,8.21-3.5l12.36-5.54c3.16-1.45,5.08-2.09,6.04-3.27,2.16,1.38,5.32.96,5.39,1.03.48.48.51.89.1,1.58-.78,1.36-1.71,3.15-3.43,6.66l-9.54,19.34c-1.46,2.96-1.98,4.14-.85,5.73l1.16,1.62c.04.4-.77,1.35-1.33,1.25-1.68-1.85-3.6-3.89-5.5-5.81-1.82-1.85-3.28-3.26-5.04-4.89-.18-.62.52-1.46,1.23-1.35l1.35,1c.99.7,1.39.6,1.62.38.26-.25.89-1.39,1.82-3.18l2.2-4.14c.41-.77.19-1.14-1.08-2.43m1.78-2.12c.84.86,1.13.93,1.8-.31l2.05-3.92c1.08-2.08,2.42-4.72,2.87-5.82-1.14.54-3.87,1.77-6.12,2.9l-3.69,1.81c-1.33.65-1.25.95-.34,1.87l3.43,3.47Z"/><polyline class="uuid-b69fbd92-d83f-441b-bed3-a0eb61ee1b57" points="699.18 118.52 688.79 112.8 678.2 118.05 680.46 106.45 672.21 98.03 683.94 96.59 689.4 86.1 694.39 96.82 706.06 98.78 697.4 106.84"/><polyline class="uuid-b69fbd92-d83f-441b-bed3-a0eb61ee1b57" points="737.77 122.79 728 116.15 716.99 120.42 720.27 109.07 712.81 99.92 724.6 99.56 731.03 89.62 735.01 100.76 746.42 103.76 737.1 111"/><polyline class="uuid-b69fbd92-d83f-441b-bed3-a0eb61ee1b57" points="775.76 134.2 767.32 125.91 755.71 128.14 760.99 117.57 755.33 107.24 766.97 109 775.07 100.38 777.01 112.02 787.69 117.03 777.21 122.48"/><polyline class="uuid-b69fbd92-d83f-441b-bed3-a0eb61ee1b57" points="813.39 150.88 806.22 141.47 794.42 142.05 801.16 132.34 796.96 121.29 808.28 124.68 817.49 117.29 817.75 129.1 827.63 135.57 816.5 139.47"/><polyline class="uuid-b69fbd92-d83f-441b-bed3-a0eb61ee1b57" points="848.07 172.7 842.01 162.57 830.22 161.84 837.98 152.93 835.03 141.49 845.89 146.11 855.89 139.78 854.84 151.54 863.96 159.07 852.45 161.72"/><polyline class="uuid-b69fbd92-d83f-441b-bed3-a0eb61ee1b57" points="895.65 184.1 884.04 186.13 879.09 196.86 873.55 186.43 861.85 185.05 870.06 176.57 867.74 164.98 878.33 170.18 888.65 164.4 886.95 176.09"/><polyline class="uuid-b69fbd92-d83f-441b-bed3-a0eb61ee1b57" points="924.09 220.02 912.28 219.88 905.46 229.54 901.94 218.26 890.66 214.76 900.32 207.93 900.15 196.13 909.62 203.18 920.78 199.37 917.02 210.57"/><polyline class="uuid-b69fbd92-d83f-441b-bed3-a0eb61ee1b57" points="863.66 250.57 858.69 239.85 847.03 237.88 855.68 229.84 853.94 218.15 864.3 223.89 874.86 218.64 872.58 230.23 880.87 238.67 869.14 240.11"/><polyline class="uuid-b69fbd92-d83f-441b-bed3-a0eb61ee1b57" points="833.6 218.85 827.82 208.53 816.09 207.42 824.11 198.76 821.55 187.24 832.27 192.2 842.42 186.18 841.01 197.91 849.88 205.74 838.3 208.01"/><polyline class="uuid-b69fbd92-d83f-441b-bed3-a0eb61ee1b57" points="798.42 196.63 791.96 186.74 780.14 186.46 787.57 177.26 784.17 165.94 795.2 170.14 804.93 163.43 804.33 175.22 813.73 182.41 802.33 185.48"/><polyline class="uuid-b69fbd92-d83f-441b-bed3-a0eb61ee1b57" points="762.6 176.94 753.82 169.06 742.31 171.85 747.1 161.04 740.88 150.99 752.65 152.18 760.3 143.19 762.78 154.72 773.72 159.22 763.53 165.16"/><polyline class="uuid-b69fbd92-d83f-441b-bed3-a0eb61ee1b57" points="774.41 234.29 766.82 225.23 755.07 226.33 761.36 216.33 756.68 205.48 768.14 208.36 776.99 200.56 777.8 212.34 787.96 218.38 776.99 222.76"/><polyline class="uuid-b69fbd92-d83f-441b-bed3-a0eb61ee1b57" points="735.45 216.57 726.92 208.4 715.33 210.83 720.46 200.18 714.58 189.94 726.27 191.51 734.21 182.75 736.32 194.37 747.08 199.21 736.72 204.83"/><polyline class="uuid-b69fbd92-d83f-441b-bed3-a0eb61ee1b57" points="722.39 168.32 712.74 161.51 701.62 165.62 705.14 154.33 697.8 145.06 709.64 144.89 716.19 135.05 720 146.25 731.37 149.44 721.93 156.52"/><polyline class="uuid-b69fbd92-d83f-441b-bed3-a0eb61ee1b57" points="641.89 122.78 651.64 116.14 662.66 120.41 659.34 109.08 666.81 99.93 655.01 99.55 648.61 89.62 644.63 100.74 633.19 103.75 642.54 110.99"/><polyline class="uuid-b69fbd92-d83f-441b-bed3-a0eb61ee1b57" points="600.91 134.2 609.31 125.91 620.91 128.14 615.63 117.58 621.33 107.24 609.65 108.98 601.58 100.38 599.65 112.02 588.94 117.03 599.44 122.48"/><polyline class="uuid-b69fbd92-d83f-441b-bed3-a0eb61ee1b57" points="564.45 150.88 571.59 141.48 583.4 142.05 576.67 132.34 580.86 121.29 569.55 124.68 560.34 117.29 560.07 129.11 550.19 135.57 561.35 139.49"/><polyline class="uuid-b69fbd92-d83f-441b-bed3-a0eb61ee1b57" points="528.92 172.72 534.99 162.58 546.77 161.85 539.03 152.95 541.98 141.5 531.1 146.13 521.14 139.8 522.17 151.54 513.07 159.08 524.58 161.74"/><polyline class="uuid-b69fbd92-d83f-441b-bed3-a0eb61ee1b57" points="482.2 184.08 493.82 186.13 498.75 196.86 504.27 186.4 516.02 185.04 507.79 176.56 510.11 164.97 499.51 170.17 489.21 164.39 490.89 176.09"/><polyline class="uuid-b69fbd92-d83f-441b-bed3-a0eb61ee1b57" points="453.3 220.05 465.1 219.92 471.93 229.55 475.43 218.29 486.72 214.79 477.08 207.97 477.24 196.15 467.77 203.21 456.58 199.4 460.37 210.59"/><polyline class="uuid-b69fbd92-d83f-441b-bed3-a0eb61ee1b57" points="432.25 259.66 443.66 256.65 452.63 264.32 453.28 252.55 463.39 246.4 452.37 242.14 449.64 230.63 442.18 239.8 430.4 238.83 436.8 248.75"/><polyline class="uuid-b69fbd92-d83f-441b-bed3-a0eb61ee1b57" points="470.31 273.41 482.06 272.22 489.71 281.2 492.2 269.67 503.13 265.17 492.92 259.24 492.01 247.44 483.21 255.34 471.73 252.55 476.51 263.35"/><polyline class="uuid-b69fbd92-d83f-441b-bed3-a0eb61ee1b57" points="543.02 251.59 554.73 253.12 560.13 263.61 565.18 252.95 576.86 251.08 568.28 242.97 570.09 231.29 559.72 236.96 549.19 231.6 551.36 243.22"/><polyline class="uuid-b69fbd92-d83f-441b-bed3-a0eb61ee1b57" points="826.59 251.59 814.87 253.12 809.47 263.61 804.41 252.95 792.74 251.08 801.33 242.97 799.5 231.29 809.89 236.96 820.41 231.6 818.24 243.22"/><polyline class="uuid-b69fbd92-d83f-441b-bed3-a0eb61ee1b57" points="907.07 273.41 895.32 272.22 887.66 281.2 885.17 269.67 874.24 265.17 884.46 259.24 885.37 247.44 894.17 255.34 905.65 252.55 900.86 263.35"/><polyline class="uuid-b69fbd92-d83f-441b-bed3-a0eb61ee1b57" points="944.96 259.66 933.54 256.65 924.56 264.32 923.91 252.55 913.81 246.4 924.83 242.14 927.56 230.63 935.01 239.8 946.8 238.83 940.38 248.75"/><polyline class="uuid-b69fbd92-d83f-441b-bed3-a0eb61ee1b57" points="513.34 250.58 518.33 239.86 529.98 237.9 521.34 229.84 523.06 218.16 512.73 223.9 502.14 218.65 504.43 230.24 496.14 238.68 507.88 240.11"/><polyline class="uuid-b69fbd92-d83f-441b-bed3-a0eb61ee1b57" points="546.17 218.85 551.92 208.54 563.69 207.41 555.65 198.75 558.21 187.23 547.51 192.2 537.32 186.2 538.75 197.91 529.9 205.72 541.47 208.01"/><polyline class="uuid-b69fbd92-d83f-441b-bed3-a0eb61ee1b57" points="580.36 196.63 586.82 186.75 598.64 186.46 591.22 177.27 594.6 165.94 583.56 170.14 573.84 163.43 574.43 175.23 565.04 182.41 576.45 185.49"/><polyline class="uuid-b69fbd92-d83f-441b-bed3-a0eb61ee1b57" points="618.72 176.92 627.52 169.04 639.01 171.84 634.24 161.03 640.44 150.97 628.68 152.17 621.04 143.17 618.55 154.71 607.62 159.21 617.82 165.14"/><polyline class="uuid-b69fbd92-d83f-441b-bed3-a0eb61ee1b57" points="597.6 234.28 603.75 224.19 615.53 223.56 607.84 214.6 610.89 203.18 599.98 207.7 590.06 201.3 591 213.07 581.84 220.54 593.33 223.27"/><polyline class="uuid-b69fbd92-d83f-441b-bed3-a0eb61ee1b57" points="638.12 216.58 646.47 208.23 658.08 210.36 652.7 199.85 658.34 189.46 646.68 191.3 638.52 182.74 636.71 194.41 626.04 199.52 636.56 204.87"/><polyline class="uuid-b69fbd92-d83f-441b-bed3-a0eb61ee1b57" points="661.03 168.32 670.69 161.53 681.79 165.64 678.29 154.34 685.61 145.06 673.79 144.9 667.24 135.06 663.44 146.25 652.06 149.44 661.51 156.54"/><polyline class="uuid-b69fbd92-d83f-441b-bed3-a0eb61ee1b57" points="698.37 205.89 688 200.17 677.42 205.43 679.67 193.83 671.4 185.4 683.11 183.98 688.59 173.49 693.6 184.19 705.28 186.16 696.61 194.21"/><path class="uuid-475e826c-4ab8-4125-b6fb-32e87b542966" d="m153.21,322.51l123.63,122.9c20.27,20.26,37.58,34.07,51.92,41.41,14.34,7.35,28.69,11.49,43.02,12.49v9.14h-159.48v-9.14c9.56,0,16.45-1.6,20.65-4.82,4.2-3.21,6.31-6.8,6.31-10.76s-.79-7.5-2.35-10.63c-1.57-3.12-6.71-8.98-15.45-17.55l-115.72-114.48v108.05c0,16.98,1.07,28.2,3.22,33.63,1.64,4.12,5.1,7.66,10.38,10.62,7.08,3.97,14.59,5.94,22.51,5.94h11.37v9.14H10.29v-9.14h11.86c13.85,0,23.9-4.04,30.17-12.13,3.96-5.26,5.93-17.95,5.93-38.07v-216.59c0-16.98-1.06-28.27-3.21-33.88-1.65-3.96-5.02-7.42-10.13-10.39-7.26-3.95-14.83-5.93-22.75-5.93h-11.86v-9.15h142.92v9.15h-11.37c-7.75,0-15.25,1.89-22.51,5.7-5.12,2.62-8.66,6.59-10.63,11.86-1.98,5.27-2.97,16.15-2.97,32.64v102.61c3.29-3.12,14.59-13.59,33.88-31.4,48.96-44.83,78.55-74.75,88.77-89.76,4.46-6.59,6.68-12.36,6.68-17.3,0-3.81-1.74-7.13-5.2-10.03-3.46-2.88-9.31-4.32-17.56-4.32h-7.67v-9.15h123.14v9.15c-7.25.16-13.85,1.15-19.78,2.96-5.93,1.81-13.2,5.31-21.76,10.51-8.58,5.19-19.12,13.56-31.65,25.09-3.63,3.3-20.36,20.2-50.19,50.69"/><path class="uuid-475e826c-4ab8-4125-b6fb-32e87b542966" d="m398.23,444.14c-16.7,12.9-27.17,20.37-31.44,22.38-6.39,2.96-13.2,4.44-20.42,4.44-11.25,0-20.51-3.84-27.81-11.54-7.27-7.7-10.91-17.82-10.91-30.38,0-7.93,1.78-14.78,5.33-20.59,4.85-8.05,13.29-15.63,25.3-22.73,12.02-7.12,32-15.74,59.95-25.94v-6.39c0-16.21-2.58-27.34-7.73-33.37-5.15-6.04-12.65-9.07-22.47-9.07-7.46,0-13.38,2.02-17.76,6.04-4.5,4.03-6.75,8.66-6.75,13.87l.36,10.28c0,5.45-1.39,9.66-4.19,12.62-2.78,2.96-6.41,4.44-10.92,4.44s-7.96-1.53-10.74-4.62c-2.79-3.08-4.18-7.28-4.18-12.61,0-10.19,5.21-19.54,15.64-28.06,10.41-8.53,25.04-12.78,43.86-12.78,14.44,0,26.28,2.43,35.51,7.29,6.99,3.67,12.14,9.4,15.46,17.22,2.13,5.09,3.19,15.51,3.19,31.25v55.23c0,15.51.31,25.01.89,28.49.59,3.5,1.57,5.83,2.94,7.02,1.35,1.19,2.92,1.77,4.7,1.77,1.89,0,3.55-.4,4.96-1.24,2.49-1.54,7.29-5.86,14.38-12.96v9.94c-13.26,17.75-25.93,26.64-38,26.64-5.8,0-10.41-2.02-13.85-6.04-3.44-4.02-5.21-10.89-5.33-20.6m0-11.54v-61.99c-17.88,7.1-29.43,12.13-34.63,15.11-9.35,5.21-16.05,10.64-20.07,16.33-4.02,5.68-6.04,11.9-6.04,18.65,0,8.52,2.54,15.59,7.64,21.21,5.08,5.62,10.95,8.43,17.59,8.43,9,0,20.83-5.91,35.52-17.75"/><path class="uuid-475e826c-4ab8-4125-b6fb-32e87b542966" d="m514.91,334.56c19.05-22.96,37.24-34.45,54.52-34.45,8.86,0,16.51,2.22,22.9,6.67,6.41,4.43,11.49,11.75,15.29,21.93,2.59,7.1,3.9,17.99,3.9,32.67v69.44c0,10.3.84,17.29,2.49,20.95,1.3,2.96,3.41,5.27,6.31,6.93,2.9,1.66,8.26,2.49,16.07,2.49v6.39h-80.45v-6.39h3.38c7.56,0,12.86-1.16,15.89-3.46,3.01-2.31,5.12-5.71,6.31-10.21.47-1.78.71-7.35.71-16.7v-66.59c0-14.8-1.92-25.55-5.78-32.24-3.83-6.69-10.33-10.04-19.44-10.04-14.11,0-28.13,7.7-42.09,23.09v85.77c0,11.01.65,17.82,1.95,20.43,1.65,3.42,3.93,5.95,6.82,7.54,2.91,1.6,8.81,2.4,17.68,2.4v6.39h-80.44v-6.39h3.56c8.28,0,13.87-2.11,16.78-6.31,2.9-4.19,4.35-12.22,4.35-24.06v-60.38c0-19.55-.45-31.44-1.33-35.7-.9-4.26-2.26-7.16-4.08-8.7-1.85-1.54-4.3-2.31-7.37-2.31-3.32,0-7.29.88-11.91,2.65l-2.66-6.38,49.01-19.9h7.64"/><path class="uuid-475e826c-4ab8-4125-b6fb-32e87b542966" d="m754.48,300.11v55.41h-5.86c-4.5-17.41-10.27-29.25-17.32-35.52-7.05-6.28-16-9.42-26.89-9.42-8.29,0-14.99,2.19-20.08,6.57-5.09,4.38-7.63,9.23-7.63,14.55,0,6.63,1.89,12.32,5.68,17.05,3.67,4.85,11.12,10,22.39,15.46l25.91,12.61c24.03,11.72,36.06,27.17,36.06,46.34,0,14.8-5.6,26.73-16.77,35.79-11.2,9.05-23.73,13.58-37.57,13.58-9.94,0-21.31-1.77-34.1-5.33-3.91-1.18-7.09-1.77-9.6-1.77-2.71,0-4.85,1.53-6.39,4.6h-5.85v-58.06h5.85c3.34,16.58,9.66,29.06,19.02,37.48,9.34,8.39,19.83,12.59,31.44,12.59,8.17,0,14.81-2.4,19.96-7.19,5.16-4.8,7.72-10.58,7.72-17.32,0-8.16-2.87-15.03-8.6-20.6-5.75-5.56-17.2-12.61-34.36-21.13-17.18-8.53-28.43-16.22-33.75-23.09-5.31-6.75-7.97-15.27-7.97-25.58,0-13.38,4.59-24.55,13.77-33.56,9.17-9,21.04-13.5,35.59-13.5,6.39,0,14.15,1.37,23.26,4.08,6.03,1.77,10.07,2.66,12.07,2.66s3.38-.41,4.45-1.24c1.07-.83,2.29-2.66,3.73-5.51"/><path class="uuid-475e826c-4ab8-4125-b6fb-32e87b542966" d="m883.05,444.14c-16.7,12.9-27.16,20.37-31.44,22.38-6.39,2.96-13.2,4.44-20.42,4.44-11.25,0-20.51-3.84-27.8-11.54-7.26-7.7-10.9-17.82-10.9-30.38,0-7.93,1.77-14.78,5.33-20.59,4.83-8.05,13.29-15.63,25.3-22.73,12.02-7.12,31.99-15.74,59.93-25.94v-6.39c0-16.21-2.57-27.34-7.72-33.37-5.14-6.04-12.64-9.07-22.47-9.07-7.45,0-13.38,2.02-17.76,6.04-4.5,4.03-6.73,8.66-6.73,13.87l.35,10.28c0,5.45-1.4,9.66-4.19,12.62-2.78,2.96-6.43,4.44-10.91,4.44s-7.96-1.53-10.74-4.62c-2.79-3.08-4.17-7.28-4.17-12.61,0-10.19,5.21-19.54,15.62-28.06,10.43-8.53,25.05-12.78,43.87-12.78,14.43,0,26.27,2.43,35.52,7.29,6.98,3.67,12.12,9.4,15.45,17.22,2.12,5.09,3.19,15.51,3.19,31.25v55.23c0,15.51.3,25.01.89,28.49.6,3.5,1.57,5.83,2.94,7.02,1.35,1.19,2.92,1.77,4.71,1.77,1.88,0,3.55-.4,4.98-1.24,2.48-1.54,7.26-5.86,14.38-12.96v9.94c-13.27,17.75-25.94,26.64-38.02,26.64-5.8,0-10.42-2.02-13.84-6.04-3.45-4.02-5.21-10.89-5.34-20.6m0-11.54v-61.99c-17.87,7.1-29.43,12.13-34.62,15.11-9.36,5.21-16.06,10.64-20.07,16.33-4.03,5.68-6.04,11.9-6.04,18.65,0,8.52,2.54,15.59,7.62,21.21,5.09,5.62,10.96,8.43,17.59,8.43,8.99,0,20.82-5.91,35.52-17.75"/><path class="uuid-475e826c-4ab8-4125-b6fb-32e87b542966" d="m1057.45,300.11v55.41h-5.86c-4.5-17.41-10.27-29.25-17.32-35.52-7.05-6.28-16-9.42-26.91-9.42-8.29,0-14.97,2.19-20.07,6.57-5.09,4.38-7.64,9.23-7.64,14.55,0,6.63,1.89,12.32,5.69,17.05,3.67,4.85,11.13,10,22.38,15.46l25.92,12.61c24.04,11.72,36.06,27.17,36.06,46.34,0,14.8-5.6,26.73-16.79,35.79-11.19,9.05-23.7,13.58-37.55,13.58-9.97,0-21.32-1.77-34.1-5.33-3.93-1.18-7.11-1.77-9.6-1.77-2.72,0-4.86,1.53-6.39,4.6h-5.85v-58.06h5.85c3.32,16.58,9.64,29.06,19.01,37.48,9.34,8.39,19.84,12.59,31.44,12.59,8.16,0,14.83-2.4,19.97-7.19,5.16-4.8,7.72-10.58,7.72-17.32,0-8.16-2.85-15.03-8.59-20.6-5.76-5.56-17.21-12.61-34.37-21.13-17.18-8.53-28.43-16.22-33.75-23.09-5.31-6.75-7.97-15.27-7.97-25.58,0-13.38,4.58-24.55,13.75-33.56,9.18-9,21.04-13.5,35.6-13.5,6.39,0,14.15,1.37,23.26,4.08,6.03,1.77,10.06,2.66,12.07,2.66s3.38-.41,4.45-1.24c1.08-.83,2.3-2.66,3.73-5.51"/></g><text class="uuid-67a489be-14cc-4bc2-83be-bc6cb71f448b" transform="translate(5 593.28)"><tspan x="0" y="0">Capitol Preservation Committee</tspan></text></svg>